<?xml version="1.0" standalone="no"?><svg xmlns="http://www.w3.org/2000/svg" viewBox="0 0 1440 320"><path fill="#a2d9ff" fill-opacity="1" d="M0,0L9.2,53.3C18.5,107,37,213,55,229.3C73.8,245,92,171,111,122.7C129.2,75,148,53,166,53.3C184.6,53,203,75,222,80C240,85,258,75,277,74.7C295.4,75,314,85,332,112C350.8,139,369,181,388,202.7C406.2,224,425,224,443,240C461.5,256,480,288,498,261.3C516.9,235,535,149,554,122.7C572.3,96,591,128,609,138.7C627.7,149,646,139,665,165.3C683.1,192,702,256,720,261.3C738.5,267,757,213,775,160C793.8,107,812,53,831,32C849.2,11,868,21,886,69.3C904.6,117,923,203,942,208C960,213,978,139,997,122.7C1015.4,107,1034,149,1052,165.3C1070.8,181,1089,171,1108,165.3C1126.2,160,1145,160,1163,144C1181.5,128,1200,96,1218,90.7C1236.9,85,1255,107,1274,122.7C1292.3,139,1311,149,1329,138.7C1347.7,128,1366,96,1385,74.7C1403.1,53,1422,43,1431,37.3L1440,32L1440,0L1430.8,0C1421.5,0,1403,0,1385,0C1366.2,0,1348,0,1329,0C1310.8,0,1292,0,1274,0C1255.4,0,1237,0,1218,0C1200,0,1182,0,1163,0C1144.6,0,1126,0,1108,0C1089.2,0,1071,0,1052,0C1033.8,0,1015,0,997,0C978.5,0,960,0,942,0C923.1,0,905,0,886,0C867.7,0,849,0,831,0C812.3,0,794,0,775,0C756.9,0,738,0,720,0C701.5,0,683,0,665,0C646.2,0,628,0,609,0C590.8,0,572,0,554,0C535.4,0,517,0,498,0C480,0,462,0,443,0C424.6,0,406,0,388,0C369.2,0,351,0,332,0C313.8,0,295,0,277,0C258.5,0,240,0,222,0C203.1,0,185,0,166,0C147.7,0,129,0,111,0C92.3,0,74,0,55,0C36.9,0,18,0,9,0L0,0Z"></path></svg>